<svg xmlns="http://www.w3.org/2000/svg" width="512" height="512" viewBox="0 0 512 512"><title>Refund Gate — square-rg, white</title><path fill="#FFFFFF" d="M0 0H512.0V512.0H0Z"/><path fill="#101B35" d="M218.099 165.531Q214.417 164.527 210.903 164.193Q207.389 163.858 204.042 163.858Q192.998 163.858 185.468 167.874Q177.938 171.890 173.420 177.579Q168.902 183.269 166.894 189.962Q164.886 196.656 164.886 201.676L164.886 287.351L110.000 287.351L110.000 120.685L162.878 120.685L162.878 144.782L163.547 144.782Q169.906 132.064 181.619 124.032Q193.333 116.000 208.728 116.000Q212.074 116.000 215.254 116.335Q218.433 116.669 220.441 117.339ZM402.000 271.622Q402.000 296.053 394.972 314.125Q387.944 332.197 375.226 344.078Q362.509 355.959 344.269 361.815Q326.030 367.672 303.942 367.672Q281.853 367.672 258.594 360.979Q235.334 354.285 218.266 341.568L245.709 302.411Q257.757 313.121 272.315 318.308Q286.873 323.496 300.930 323.496Q325.026 323.496 336.572 310.778Q348.118 298.061 348.118 276.977L348.118 266.936L347.114 266.936Q339.417 276.977 326.364 283.001Q313.312 289.025 296.579 289.025Q277.503 289.025 262.777 282.164Q248.052 275.303 237.844 263.590Q227.637 251.876 222.282 236.314Q216.927 220.752 216.927 203.349Q216.927 185.946 222.282 170.217Q227.637 154.487 237.844 142.439Q248.052 130.391 262.777 123.195Q277.503 116.000 296.244 116.000Q311.974 116.000 326.364 122.359Q340.755 128.717 349.457 142.104L350.126 142.104L350.126 120.685L402.000 120.685ZM349.791 203.014Q349.791 194.648 346.947 186.950Q344.102 179.253 338.747 173.396Q333.393 167.539 326.030 164.193Q318.667 160.846 309.296 160.846Q299.926 160.846 292.730 164.193Q285.535 167.539 280.515 173.229Q275.495 178.918 272.817 186.615Q270.140 194.313 270.140 203.014Q270.140 211.381 272.817 219.079Q275.495 226.776 280.515 232.633Q285.535 238.489 292.730 242.003Q299.926 245.517 309.296 245.517Q318.667 245.517 326.197 242.003Q333.727 238.489 338.915 232.800Q344.102 227.111 346.947 219.413Q349.791 211.716 349.791 203.014Z"/></svg>